<?xml version="1.0" encoding="utf-8"?>

<!DOCTYPE svg PUBLIC "-//W3C//DTD SVG 1.1//EN" "http://www.w3.org/Graphics/SVG/1.1/DTD/svg11.dtd">
<!-- Uploaded to: SVG Repo, www.svgrepo.com, Generator: SVG Repo Mixer Tools -->
<svg height="800px" width="800px" version="1.1" id="_x32_" xmlns="http://www.w3.org/2000/svg" xmlns:xlink="http://www.w3.org/1999/xlink" 
	 viewBox="0 0 512 512"  xml:space="preserve">
<style type="text/css">
	.st0{fill:#000000;}
</style>
<g>
	<path class="st0" d="M127.923,267.983h0.016c-3.507-0.502-6.998-0.743-10.434-0.743c-36.165,0.008-67.677,26.589-72.902,63.389
		c-0.496,3.491-0.736,6.974-0.736,10.41c0,36.164,26.589,67.677,63.381,72.918c3.498,0.488,6.974,0.735,10.419,0.735
		c36.164-0.007,67.676-26.589,72.909-63.388l-7.849-1.115l7.849,1.107c0.495-3.498,0.736-6.982,0.736-10.426
		C191.312,304.712,164.722,273.208,127.923,267.983z M174.878,349.074c-4.071,28.888-28.88,49.765-57.211,49.758
		c-2.702,0-5.434-0.186-8.206-0.573c-28.865-4.08-49.742-28.888-49.742-57.22c0-2.701,0.186-5.434,0.581-8.182
		c4.071-28.888,28.88-49.765,57.204-49.765c2.701,0,5.434,0.186,8.19,0.588h0.007c28.889,4.072,49.758,28.873,49.758,57.188
		C175.458,343.571,175.272,346.311,174.878,349.074z"/>
	<path class="st0" d="M510.823,324.475c-0.665-4.691-1.686-9.227-2.872-13.693l0.697-0.263c-0.007-0.024-2.547-6.758-6.51-17.517
		c-5.952-16.132-15.071-41.242-23.492-65.858c-8.414-24.569-16.147-48.828-19.174-62.506l-0.023-0.086l-0.023-0.085
		c-7.439-30.212-28.494-54.162-55.54-66.137c-0.208-0.843-0.41-1.657-0.565-2.368l-0.015-0.078l-0.031-0.108
		c-6.146-24.91-28.54-42.318-54.015-42.334c-2.601,0-5.224,0.186-7.865,0.558c-27.796,3.948-47.868,27.727-47.868,55.044
		c0,0.75,0.015,1.509,0.046,2.26v0.094l0.008,0.077c0.14,2.284,0.318,5.148,0.512,8.236c-16.891,17.393-27.186,40.832-27.712,66.144
		h-20.776c-0.518-25.312-10.814-48.751-27.704-66.144c0.193-3.089,0.371-5.953,0.51-8.236l0.008-0.085v-0.093
		c0.031-0.751,0.047-1.502,0.047-2.252c0-27.317-20.072-51.096-47.876-55.044h0.031c-2.662-0.388-5.302-0.558-7.888-0.558
		c-25.475,0.008-47.861,17.433-53.999,42.342l-0.023,0.094l-0.016,0.054c-0.162,0.72-0.364,1.548-0.58,2.399
		c-27.046,11.967-48.109,35.925-55.547,66.145l-0.024,0.077l-0.023,0.086c-2.012,9.087-6.13,22.974-11.139,38.424
		c-7.508,23.207-17.029,50.106-24.662,71.16c-3.808,10.535-7.16,19.615-9.552,26.055c-2.384,6.44-3.816,10.225-3.816,10.225
		l0.697,0.271c-1.184,4.474-2.206,9.01-2.872,13.701C0.388,330.055,0,335.605,0,341.102c0,57.66,42.396,107.951,101.109,116.28
		c5.581,0.789,11.139,1.176,16.634,1.168c57.653,0,107.928-42.396,116.258-101.1c0.612-4.335,0.914-8.639,1.045-12.912l0.759,0.046
		v-0.008c0,0,0.015-0.239,0.038-0.596h40.306c0.023,0.357,0.039,0.596,0.039,0.596l0.759-0.046c0.131,4.28,0.433,8.584,1.044,12.92
		c8.329,58.705,58.605,101.1,116.257,101.108c5.496,0,11.054-0.387,16.635-1.176c58.714-8.329,101.109-58.62,101.117-116.28
		C512,335.605,511.613,330.055,510.823,324.475z M162.733,69.295c1.866,0,3.739,0.124,5.612,0.394l0.604,0.086l-0.573-0.078
		c19.05,2.678,32.89,18.5,34.02,36.954c-11.913-8.019-25.776-13.554-40.956-15.706c-4.652-0.658-9.273-0.983-13.84-0.976
		c-7.129,0-14.088,0.859-20.853,2.346C133.187,78.507,147.174,69.28,162.733,69.295z M218.303,355.228
		c-7.175,50.794-50.74,87.477-100.559,87.469c-4.753,0-9.567-0.333-14.42-1.014c-50.78-7.168-87.47-50.756-87.47-100.582
		c0-4.754,0.333-9.56,1.022-14.398c7.176-50.779,50.756-87.47,100.583-87.47c4.752,0,9.552,0.325,14.398,1.022
		c50.778,7.176,87.47,50.748,87.47,100.575C219.325,345.575,218.992,350.375,218.303,355.228z M229.782,191.095
		c-1.223,19.622-3.669,57.691-5.813,90.875c-0.17,2.678-0.341,5.256-0.511,7.857c-16.487-34.066-49.091-59.557-89.374-65.27
		c-5.588-0.797-11.138-1.176-16.626-1.176c-28.393,0-54.975,10.319-75.665,27.766c5.047-14.359,10.194-29.36,14.676-43.201
		c5.055-15.62,9.234-29.616,11.487-39.694c9.002-36.675,42.148-62.444,79.644-62.429c3.824,0,7.702,0.263,11.611,0.821
		c41.018,5.79,70.642,40.987,70.634,81.208C229.844,188.927,229.828,190.004,229.782,191.095z M236.873,328.128
		c1.92-29.732,5.984-92.501,8.128-126.421h21.991c2.144,33.92,6.208,96.689,8.128,126.421H236.873z M343.617,69.697
		c1.912-0.271,3.786-0.402,5.643-0.402c15.559-0.015,29.539,9.212,35.994,23.014c-6.765-1.479-13.732-2.346-20.861-2.346
		c-4.567,0-9.188,0.325-13.84,0.983c-15.179,2.152-29.042,7.686-40.956,15.706C310.727,88.198,324.559,72.376,343.617,69.697z
		 M282.21,191.095c-0.046-1.084-0.069-2.168-0.069-3.243c0-40.221,29.624-75.418,70.641-81.208
		c3.909-0.558,7.779-0.821,11.611-0.821c37.465-0.015,70.572,25.707,79.613,62.328c2.26,10.086,6.448,24.12,11.518,39.794
		c4.474,13.826,9.621,28.842,14.669,43.193c-20.691-17.439-47.265-27.758-75.65-27.758c-5.488,0-11.038,0.379-16.635,1.176
		c-40.282,5.713-72.886,31.203-89.382,65.27C286.282,254.979,283.542,212.297,282.21,191.095z M408.669,441.684
		c-4.853,0.681-9.668,1.014-14.421,1.022c-49.818,0-93.383-36.683-100.559-87.477c-0.689-4.845-1.022-9.653-1.022-14.398
		c0-49.827,36.683-93.399,87.477-100.575c4.838-0.697,9.645-1.022,14.398-1.022c49.819,0,93.407,36.691,100.583,87.47
		c0.689,4.838,1.022,9.644,1.022,14.398C496.147,390.928,459.456,434.516,408.669,441.684z"/>
	<path class="st0" d="M394.489,267.24c-3.437,0-6.928,0.24-10.434,0.743h0.008c-36.792,5.225-63.381,36.73-63.381,72.887
		c0,3.444,0.239,6.928,0.735,10.434c5.225,36.799,36.745,63.381,72.91,63.388c3.444,0,6.92-0.247,10.403-0.735
		c36.814-5.241,63.396-36.754,63.396-72.918c0-3.436-0.24-6.92-0.735-10.41C462.166,293.829,430.653,267.24,394.489,267.24z
		 M402.516,398.259c-2.756,0.387-5.496,0.573-8.19,0.573c-28.331,0.007-53.14-20.87-57.212-49.758
		c-0.395-2.763-0.58-5.503-0.58-8.205c-0.008-28.316,20.869-53.117,49.757-57.188h0.008c2.748-0.403,5.488-0.588,8.19-0.588
		c28.331,0,53.132,20.877,57.204,49.757c0.387,2.756,0.58,5.496,0.58,8.19C452.273,369.371,431.404,394.179,402.516,398.259z"/>
</g>
</svg>