<?xml version="1.0" encoding="iso-8859-1"?>
<!-- Uploaded to: SVG Repo, www.svgrepo.com, Generator: SVG Repo Mixer Tools -->
<svg fill="#000000" version="1.1" id="Layer_1" xmlns="http://www.w3.org/2000/svg" xmlns:xlink="http://www.w3.org/1999/xlink" 
	 viewBox="0 0 512 512" xml:space="preserve">
<g>
	<g>
		<rect y="435.934" width="512" height="15.738"/>
	</g>
</g>
<g>
	<g>
		<polygon points="24.131,388.721 24.131,428.59 39.869,428.59 39.869,404.459 472.131,404.459 472.131,428.59 487.869,428.59 
			487.869,388.721 		"/>
	</g>
</g>
<g>
	<g>
		<polygon points="231.869,60.328 231.869,76.066 247.607,76.066 247.607,83.41 263.344,83.41 263.344,76.066 280.131,76.066 
			280.131,60.328 		"/>
	</g>
</g>
<g>
	<g>
		<path d="M487.869,347.803v-7.869c0-125.605-99.862-228.228-224.525-232.122V91.803h-15.738v16.049
			c-124.173,4.436-223.475,106.83-223.475,232.082v7.869h223.475v16.787h-39.869v15.738h96.525V364.59h-40.918v-16.787H487.869z
			 M39.629,332.066C43.779,216.306,139.245,123.422,256,123.422s212.221,92.884,216.37,208.643H39.629z"/>
	</g>
</g>
<g>
	<g>
		<path d="M189.193,170.6c-38.674,27.278-65.937,69.653-74.799,116.26l15.461,2.94c8.107-42.632,33.041-81.392,68.41-106.339
			L189.193,170.6z"/>
	</g>
</g>
<g>
	<g>
		<rect x="247.607" y="412.852" width="16.787" height="15.738"/>
	</g>
</g>
<g>
	<g>
		<rect x="271.738" y="412.852" width="16.787" height="15.738"/>
	</g>
</g>
<g>
	<g>
		<rect x="223.475" y="412.852" width="16.787" height="15.738"/>
	</g>
</g>
</svg>