<svg width="176" height="164" viewBox="0 0 176 164" fill="none" xmlns="http://www.w3.org/2000/svg">
<ellipse opacity="0.2" cx="116.356" cy="3.69565" rx="3.69231" ry="3.69565" fill="#E70F14"/>
<ellipse opacity="0.2" cx="32.3564" cy="3.69565" rx="3.69231" ry="3.69565" fill="#E70F14"/>
<ellipse opacity="0.2" cx="116.356" cy="34.9758" rx="3.69231" ry="3.69565" fill="#E70F14"/>
<ellipse opacity="0.2" cx="32.3564" cy="34.9758" rx="3.69231" ry="3.69565" fill="#E70F14"/>
<ellipse opacity="0.2" cx="116.356" cy="66.256" rx="3.69231" ry="3.69565" fill="#E70F14"/>
<ellipse opacity="0.2" cx="32.3564" cy="66.256" rx="3.69231" ry="3.69565" fill="#E70F14"/>
<ellipse opacity="0.2" cx="116.356" cy="97.5365" rx="3.69231" ry="3.69565" fill="#E70F14"/>
<ellipse opacity="0.2" cx="32.3564" cy="97.5365" rx="3.69231" ry="3.69565" fill="#E70F14"/>
<ellipse opacity="0.2" cx="116.356" cy="128.817" rx="3.69231" ry="3.69565" fill="#E70F14"/>
<ellipse opacity="0.2" cx="32.3564" cy="128.817" rx="3.69231" ry="3.69565" fill="#E70F14"/>
<ellipse opacity="0.2" cx="116.356" cy="160.096" rx="3.69231" ry="3.69565" fill="#E70F14"/>
<ellipse opacity="0.2" cx="32.3564" cy="160.096" rx="3.69231" ry="3.69565" fill="#E70F14"/>
<ellipse opacity="0.2" cx="144.274" cy="3.69565" rx="3.69231" ry="3.69565" fill="#E70F14"/>
<ellipse opacity="0.2" cx="60.2743" cy="3.69565" rx="3.69231" ry="3.69565" fill="#E70F14"/>
<ellipse opacity="0.2" cx="144.274" cy="34.9758" rx="3.69231" ry="3.69565" fill="#E70F14"/>
<ellipse opacity="0.2" cx="60.2743" cy="34.9758" rx="3.69231" ry="3.69565" fill="#E70F14"/>
<ellipse opacity="0.2" cx="144.274" cy="66.256" rx="3.69231" ry="3.69565" fill="#E70F14"/>
<ellipse opacity="0.2" cx="60.2743" cy="66.256" rx="3.69231" ry="3.69565" fill="#E70F14"/>
<ellipse opacity="0.2" cx="144.274" cy="97.5365" rx="3.69231" ry="3.69565" fill="#E70F14"/>
<ellipse opacity="0.2" cx="60.2743" cy="97.5365" rx="3.69231" ry="3.69565" fill="#E70F14"/>
<ellipse opacity="0.2" cx="144.274" cy="128.817" rx="3.69231" ry="3.69565" fill="#E70F14"/>
<ellipse opacity="0.2" cx="60.2743" cy="128.817" rx="3.69231" ry="3.69565" fill="#E70F14"/>
<ellipse opacity="0.2" cx="144.274" cy="160.097" rx="3.69231" ry="3.69565" fill="#E70F14"/>
<ellipse opacity="0.2" cx="60.2743" cy="160.097" rx="3.69231" ry="3.69565" fill="#E70F14"/>
<ellipse opacity="0.2" cx="172.19" cy="3.69565" rx="3.69231" ry="3.69565" fill="#E70F14"/>
<ellipse opacity="0.2" cx="88.1904" cy="3.69565" rx="3.69231" ry="3.69565" fill="#E70F14"/>
<ellipse opacity="0.2" cx="4.19035" cy="3.69565" rx="3.69231" ry="3.69565" fill="#E70F14"/>
<ellipse opacity="0.2" cx="172.19" cy="34.9758" rx="3.69231" ry="3.69565" fill="#E70F14"/>
<ellipse opacity="0.2" cx="88.1904" cy="34.9758" rx="3.69231" ry="3.69565" fill="#E70F14"/>
<ellipse opacity="0.2" cx="4.19035" cy="34.9758" rx="3.69231" ry="3.69565" fill="#E70F14"/>
<ellipse opacity="0.2" cx="172.19" cy="66.256" rx="3.69231" ry="3.69565" fill="#E70F14"/>
<ellipse opacity="0.2" cx="88.1904" cy="66.256" rx="3.69231" ry="3.69565" fill="#E70F14"/>
<ellipse opacity="0.2" cx="4.19035" cy="66.256" rx="3.69231" ry="3.69565" fill="#E70F14"/>
<ellipse opacity="0.2" cx="172.19" cy="97.5365" rx="3.69231" ry="3.69565" fill="#E70F14"/>
<ellipse opacity="0.2" cx="88.1904" cy="97.5365" rx="3.69231" ry="3.69565" fill="#E70F14"/>
<ellipse opacity="0.2" cx="4.19035" cy="97.5365" rx="3.69231" ry="3.69565" fill="#E70F14"/>
<ellipse opacity="0.2" cx="172.19" cy="128.817" rx="3.69231" ry="3.69565" fill="#E70F14"/>
<ellipse opacity="0.2" cx="88.1904" cy="128.817" rx="3.69231" ry="3.69565" fill="#E70F14"/>
<ellipse opacity="0.2" cx="4.19035" cy="128.817" rx="3.69231" ry="3.69565" fill="#E70F14"/>
<ellipse opacity="0.2" cx="172.19" cy="160.097" rx="3.69231" ry="3.69565" fill="#E70F14"/>
<ellipse opacity="0.2" cx="88.1904" cy="160.097" rx="3.69231" ry="3.69565" fill="#E70F14"/>
<ellipse opacity="0.2" cx="4.19035" cy="160.097" rx="3.69231" ry="3.69565" fill="#E70F14"/>
</svg>
