<?xml version="1.0" ?>
<!-- Uploaded to: SVG Repo, www.svgrepo.com, Generator: SVG Repo Mixer Tools -->
<svg width="800px" height="800px" viewBox="0 0 64 64" id="svg5" version="1.1" xml:space="preserve" xmlns="http://www.w3.org/2000/svg" xmlns:svg="http://www.w3.org/2000/svg">
<defs id="defs2"/>
<g id="layer1" transform="translate(0,-96)">
<path d="m 6.4375,115 a 1.0001,1.0001 0 0 0 -1,1 v 34 c 0,3.30186 2.6981488,6 6,6 h 31 c 3.301851,0 6,-2.69814 6,-6 v -9.04688 c 5.596598,-0.50744 10,-5.22705 10,-10.95312 0,-5.72607 -4.403402,-10.44568 -10,-10.95312 V 116 a 1.0001,1.0001 0 0 0 -1,-1 h -29 z m 1,2 h 10 v 10 h -2 a 1.0001,1.0001 0 0 0 -1,1 v 6 a 1.0001,1.0001 0 0 0 1,1 h 6 a 1.0001,1.0001 0 0 0 1,-1 v -6 a 1.0001,1.0001 0 0 0 -1,-1 h -2 v -10 h 27 v 33 c 0,2.22098 -1.779026,4 -4,4 h -31 c -2.220974,0 -4,-1.77902 -4,-4 z m 41,4.05664 c 4.508773,0.4955 8,4.29931 8,8.94336 0,4.64405 -3.491227,8.44786 -8,8.94336 z m -32,7.94336 h 2 2 v 4 h -4 z" id="path66391" style="color:#000000;fill:#000000;fill-rule:evenodd;stroke-linecap:round;stroke-linejoin:round;stroke-miterlimit:4.1;-inkscape-stroke:none"/>
<path d="m 34.337891,100.00391 a 1,1 0 0 0 -0.769532,0.48242 1,1 0 0 0 0.34375,1.37109 c 0,0 1.073888,0.70878 1.515625,1.50391 0.220869,0.39756 0.293338,0.71959 0.160157,1.11914 -0.133182,0.39954 -0.551886,0.98777 -1.675782,1.66211 -1.346674,0.808 -2.139534,1.51358 -2.404297,2.48437 -0.13238,0.4854 -0.05635,1.02345 0.152344,1.42188 0.2087,0.39842 0.507492,0.67415 0.810547,0.89062 1.212221,0.86588 2.791016,1.04688 2.791016,1.04688 a 1,1 0 0 0 1.15039,-0.82227 1,1 0 0 0 -0.822265,-1.15039 c 0,0 -1.419255,-0.319 -1.957032,-0.70312 -0.119736,-0.0855 -0.163385,-0.14613 -0.179687,-0.16993 0.02292,-0.0698 0.347019,-0.59844 1.488281,-1.2832 1.3761,-0.82566 2.207401,-1.73744 2.542969,-2.74414 0.335568,-1.0067 0.09554,-1.99717 -0.308594,-2.72461 -0.808259,-1.45487 -2.234375,-2.24609 -2.234375,-2.24609 a 1,1 0 0 0 -0.603515,-0.13867 z" id="path66389" style="color:#000000;fill:#000000;fill-rule:evenodd;stroke-linecap:round;stroke-linejoin:round;stroke-miterlimit:4.1;-inkscape-stroke:none"/>
<path d="m 27.121094,100.00391 a 1,1 0 0 0 -0.769532,0.48242 1,1 0 0 0 0.34375,1.37109 c 0,0 1.073888,0.70878 1.515626,1.50391 0.220869,0.39756 0.291384,0.71959 0.158203,1.11914 -0.133182,0.39954 -0.549933,0.98777 -1.673829,1.66211 -1.346674,0.808 -2.139535,1.51358 -2.404296,2.48437 -0.132381,0.4854 -0.05636,1.02345 0.152343,1.42188 0.2087,0.39842 0.507493,0.67415 0.810547,0.89062 1.212221,0.86588 2.791016,1.04688 2.791016,1.04688 a 1,1 0 0 0 1.15039,-0.82227 1,1 0 0 0 -0.822265,-1.15039 c 0,0 -1.419256,-0.319 -1.957031,-0.70312 -0.119738,-0.0855 -0.163386,-0.14613 -0.179688,-0.16993 0.02292,-0.0698 0.34702,-0.59844 1.488281,-1.2832 1.3761,-0.82566 2.207402,-1.73744 2.542969,-2.74414 0.335568,-1.0067 0.09554,-1.99717 -0.308594,-2.72461 -0.808259,-1.45487 -2.234375,-2.24609 -2.234375,-2.24609 a 1,1 0 0 0 -0.603515,-0.13867 z" id="path66387" style="color:#000000;fill:#000000;fill-rule:evenodd;stroke-linecap:round;stroke-linejoin:round;stroke-miterlimit:4.1;-inkscape-stroke:none"/>
<path d="m 20.337891,100.00391 a 1,1 0 0 0 -0.769532,0.48242 1,1 0 0 0 0.34375,1.37109 c 0,0 1.073888,0.70878 1.515625,1.50391 0.220869,0.39756 0.293338,0.71959 0.160157,1.11914 -0.133182,0.39954 -0.551886,0.98777 -1.675782,1.66211 -1.346674,0.808 -2.139534,1.51358 -2.404297,2.48437 -0.13238,0.4854 -0.05635,1.02345 0.152344,1.42188 0.2087,0.39842 0.507492,0.67415 0.810547,0.89062 1.212221,0.86588 2.791016,1.04688 2.791016,1.04688 a 1,1 0 0 0 1.15039,-0.82227 1,1 0 0 0 -0.822265,-1.15039 c 0,0 -1.419255,-0.319 -1.957032,-0.70312 -0.119736,-0.0855 -0.163385,-0.14613 -0.179687,-0.16993 0.02292,-0.0698 0.347019,-0.59844 1.488281,-1.2832 1.3761,-0.82566 2.207401,-1.73744 2.542969,-2.74414 0.335568,-1.0067 0.09554,-1.99717 -0.308594,-2.72461 -0.808259,-1.45487 -2.234375,-2.24609 -2.234375,-2.24609 a 1,1 0 0 0 -0.603515,-0.13867 z" id="rect14382" style="color:#000000;fill:#000000;fill-rule:evenodd;stroke-linecap:round;stroke-linejoin:round;stroke-miterlimit:4.1;-inkscape-stroke:none"/>
</g>
</svg>