<svg width="14" height="14" viewBox="0 0 14 14" fill="none" xmlns="http://www.w3.org/2000/svg">
<g clip-path="url(#clip0_1399_7964)">
<path d="M13.4154 7.00004C13.4154 10.5438 10.5425 13.4167 6.9987 13.4167C3.45487 13.4167 0.582031 10.5438 0.582031 7.00004C0.582031 3.45621 3.45487 0.583374 6.9987 0.583374C10.5425 0.583374 13.4154 3.45621 13.4154 7.00004ZM1.75268 7.00004C1.75268 9.89734 4.1014 12.2461 6.9987 12.2461C9.896 12.2461 12.2447 9.89734 12.2447 7.00004C12.2447 4.10275 9.896 1.75402 6.9987 1.75402C4.1014 1.75402 1.75268 4.10275 1.75268 7.00004Z" fill="#0F0F0F"/>
<path d="M7.0013 2.91663C6.67913 2.91663 6.41797 3.17779 6.41797 3.49996V7.2722C6.41797 7.2722 6.41797 7.42428 6.49188 7.53867C6.54134 7.63568 6.61846 7.71997 6.71979 7.77848L9.41467 9.3344C9.69368 9.49546 10.0504 9.39985 10.2115 9.12084C10.3726 8.84183 10.277 8.48507 9.998 8.32401L7.58464 6.93066V3.49996C7.58464 3.1778 7.32348 2.91663 7.0013 2.91663Z" fill="#0F0F0F"/>
</g>
<defs>
<clipPath id="clip0_1399_7964">
<rect width="14" height="14" fill="white"/>
</clipPath>
</defs>
</svg>
